<?xml version="1.0" encoding="UTF-8" standalone="no"?>
<svg
   width="105.952"
   height="20"
   role="img"
   aria-label="Arduino"
   version="1.1"
   id="svg16"
   sodipodi:docname="codeberg.svg"
   inkscape:version="1.1 (c4e8f9ed74, 2022-05-24)"
   xmlns:inkscape="http://www.inkscape.org/namespaces/inkscape"
   xmlns:sodipodi="http://sodipodi.sourceforge.net/DTD/sodipodi-0.dtd"
   xmlns:xlink="http://www.w3.org/1999/xlink"
   xmlns="http://www.w3.org/2000/svg"
   xmlns:svg="http://www.w3.org/2000/svg"
   xmlns:rdf="http://www.w3.org/1999/02/22-rdf-syntax-ns#"
   xmlns:cc="http://creativecommons.org/ns#"
   xmlns:dc="http://purl.org/dc/elements/1.1/">
  <defs
     id="defs20">
    <linearGradient
       xlink:href="#linearGradient6924"
       id="linearGradient6918"
       x1="42519.285"
       y1="-7078.7891"
       x2="42575.336"
       y2="-6966.9307"
       gradientUnits="userSpaceOnUse" />
    <linearGradient
       id="linearGradient6924">
      <stop
         style="stop-color:#ffffff;stop-opacity:0"
         offset="0"
         id="stop6920" />
      <stop
         id="stop6926"
         offset="0.49517274"
         style="stop-color:#71c2ff;stop-opacity:1" />
      <stop
         style="stop-color:#39aaff;stop-opacity:1"
         offset="1"
         id="stop6922" />
    </linearGradient>
  </defs>
  <sodipodi:namedview
     id="namedview18"
     pagecolor="#ffffff"
     bordercolor="#666666"
     borderopacity="1.0"
     inkscape:pageshadow="2"
     inkscape:pageopacity="0.0"
     inkscape:pagecheckerboard="0"
     showgrid="false"
     width="14.719px"
     inkscape:zoom="8.1197183"
     inkscape:cx="51.910668"
     inkscape:cy="9.914137"
     inkscape:window-width="1366"
     inkscape:window-height="734"
     inkscape:window-x="0"
     inkscape:window-y="0"
     inkscape:window-maximized="1"
     inkscape:current-layer="svg16" />
  <title
     id="title2">Arduino</title>
  <g
     shape-rendering="crispEdges"
     id="g8"
     transform="matrix(1.4922762,0,0,1,0.08524606,0.09899131)"
     style="fill:#0066ff">
    <rect
       width="0"
       height="20"
       fill="#555555"
       id="rect4"
       x="0"
       y="0"
       style="fill:#0066ff" />
    <rect
       x="0"
       width="71"
       height="20"
       fill="#00979d"
       id="rect6"
       y="0"
       style="fill:#0066ff" />
  </g>
  <g
     id="g6933"
     transform="matrix(0.31904891,0,0,0.31098638,-3576.4853,588.83888)"
     style="fill:#d7f4ee">
    <path
       id="path6733"
       style="font-variation-settings:normal;opacity:0.5;vector-effect:none;fill:#d7f4ee;fill-opacity:1;stroke:none;stroke-width:3.67846;stroke-linecap:butt;stroke-linejoin:miter;stroke-miterlimit:2;stroke-dasharray:none;stroke-dashoffset:0;stroke-opacity:1;paint-order:stroke markers fill;stop-color:#000000;stop-opacity:1"
       d="m 42519.285,-7078.7891 a 0.76086879,0.56791688 0 0 0 -0.738,0.6739 l 33.586,125.8886 a 87.182358,87.182358 0 0 0 39.381,-33.7636 l -71.565,-92.5196 a 0.76086879,0.56791688 0 0 0 -0.664,-0.2793 z"
       transform="scale(0.26458333)" />
    <path
       id="circle6810"
       style="opacity:1;fill:#d7f4ee;fill-opacity:1;stroke:none;stroke-width:2.01453px;stroke-opacity:1;paint-order:stroke markers fill;stop-color:#000000"
       d="m 42517.32,-7119.4805 a 87.182358,87.182358 0 0 0 -86.855,87.1817 87.182358,87.182358 0 0 0 13.312,46.3047 l 72.688,-93.9727 a 1.3609979,1.0158567 0 0 1 2.359,0 l 72.692,93.9766 a 87.182358,87.182358 0 0 0 13.314,-46.3086 87.182358,87.182358 0 0 0 -87.182,-87.1817 87.182358,87.182358 0 0 0 -0.328,0 z"
       transform="scale(0.26458333)" />
  </g>
  <text
     xml:space="preserve"
     style="font-size:16px;line-height:1.25;font-family:sans-serif;fill:#ffffff"
     x="24.070301"
     y="14.735748"
     id="text10976"><tspan
       sodipodi:role="line"
       id="tspan10974"
       x="24.070301"
       y="14.735748">Codeberg</tspan></text>
  <metadata
     id="metadata14470">
    <rdf:RDF>
      <cc:Work
         rdf:about="">
        <dc:title>Arduino</dc:title>
      </cc:Work>
    </rdf:RDF>
  </metadata>
</svg>
