<?xml version="1.0" encoding="UTF-8" standalone="no"?>
<svg
   width="63.653999"
   height="20"
   role="img"
   aria-label="Java"
   version="1.1"
   id="svg16"
   sodipodi:docname="vim.svg"
   inkscape:version="1.1 (c4e8f9ed74, 2022-05-24)"
   xmlns:inkscape="http://www.inkscape.org/namespaces/inkscape"
   xmlns:sodipodi="http://sodipodi.sourceforge.net/DTD/sodipodi-0.dtd"
   xmlns="http://www.w3.org/2000/svg"
   xmlns:svg="http://www.w3.org/2000/svg"
   xmlns:rdf="http://www.w3.org/1999/02/22-rdf-syntax-ns#"
   xmlns:cc="http://creativecommons.org/ns#"
   xmlns:dc="http://purl.org/dc/elements/1.1/">
  <defs
     id="defs20" />
  <sodipodi:namedview
     id="namedview18"
     pagecolor="#ffffff"
     bordercolor="#666666"
     borderopacity="1.0"
     inkscape:pageshadow="2"
     inkscape:pageopacity="0.0"
     inkscape:pagecheckerboard="0"
     showgrid="false"
     inkscape:zoom="10.877358"
     inkscape:cx="43.622723"
     inkscape:cy="17.375542"
     inkscape:window-width="1364"
     inkscape:window-height="733"
     inkscape:window-x="89"
     inkscape:window-y="85"
     inkscape:window-maximized="0"
     inkscape:current-layer="svg16"
     width="63.654px" />
  <title
     id="title2">Java</title>
  <g
     id="g12443"
     transform="translate(4.4815566)">
    <g
       shape-rendering="crispEdges"
       id="g8"
       transform="matrix(1.2010189,0,0,1,-4.3737625,0)">
      <rect
         width="0"
         height="20"
         fill="#555555"
         id="rect4"
         x="0"
         y="0" />
      <rect
         x="0"
         width="53"
         height="20"
         fill="#007396"
         id="rect6"
         style="fill:#008000"
         y="0" />
    </g>
    <text
       xml:space="preserve"
       style="font-size:16px;line-height:1.25;font-family:sans-serif;fill:#ffffff"
       x="23.038403"
       y="16.21526"
       id="text10906"><tspan
         sodipodi:role="line"
         id="tspan10904"
         x="23.038403"
         y="16.21526">VIM</tspan></text>
    <g
       id="g12361"
       transform="matrix(0.29122434,0,0,0.25898801,1.764947,1.7316829)">
      <path
         style="opacity:0.2"
         d="m 31.999,3.0001 c -1.571,0 -3.144,0.5857 -4.319,1.7604 L 3.7604,28.683 c -2.3494,2.35 -2.3461,6.281 0.0035,8.631 L 27.684,61.236 c 2.349,2.35 6.285,2.353 8.634,0.004 l 23.92,-23.923 c 2.349,-2.349 2.349,-6.284 0,-8.634 L 36.318,4.7605 C 35.143,3.5858 33.571,3.0001 31.999,3.0001 Z"
         id="path2" />
      <path
         style="fill:#159532"
         d="M 31.999,2 C 30.428,2 28.855,2.5858 27.68,3.7605 L 3.7604,27.683 C 1.411,30.032 1.4143,33.964 3.7639,36.314 L 27.684,60.236 c 2.349,2.35 6.285,2.353 8.634,0.004 l 23.92,-23.923 c 2.349,-2.349 2.349,-6.284 0,-8.634 L 36.318,3.7605 C 35.143,2.5858 33.571,2 31.999,2 Z"
         id="path4" />
      <path
         style="opacity:0.2;fill:#ffffff"
         d="M 32,2 C 30.429,2 28.854,2.5851 27.68,3.7598 L 3.7598,27.684 C 2.4601,28.983 1.8843,30.766 2.0234,32.498 2.1343,31.099 2.7099,29.733 3.7598,28.684 L 27.68,4.7598 C 28.854,3.5851 30.429,3 32,3 c 1.572,0 3.144,0.5851 4.318,1.7598 l 23.92,23.9242 c 1.05,1.049 1.627,2.416 1.739,3.816 0.138,-1.733 -0.439,-3.517 -1.739,-4.816 L 36.318,3.7598 C 35.144,2.5851 33.572,2 32,2 Z"
         id="path6" />
      <path
         style="opacity:0.2"
         d="m 9,11 c -1.662,0 -3,1.338 -3,3 0,1.662 1.338,3 3,3 h 1 v 34 a 6.0006,6.0006 0 0 0 10.193,4.291 L 59.418,16.959 C 60.879,16.755 62,15.519 62,14 62,12.338 60.662,11 59,11 H 45 c -1.662,0 -3,1.338 -3,3 0,0.889 0.39,1.676 1,2.225 L 22,36.748 V 17 h 1 c 1.662,0 3,-1.338 3,-3 0,-1.662 -1.338,-3 -3,-3 z"
         id="path8" />
      <path
         style="fill:#e4e4e4"
         d="m 9,10 c -1.662,0 -3,1.338 -3,3 0,1.662 1.338,3 3,3 h 1 v 34 a 6.0006,6.0006 0 0 0 10.193,4.291 L 59.418,15.959 C 60.879,15.755 62,14.519 62,13 62,11.338 60.662,10 59,10 H 45 c -1.662,0 -3,1.338 -3,3 0,0.889 0.39,1.676 1,2.225 L 22,35.748 V 16 h 1 c 1.662,0 3,-1.338 3,-3 0,-1.662 -1.338,-3 -3,-3 z"
         id="path10" />
      <path
         style="opacity:0.2;fill:#ffffff"
         d="m 9,10 c -1.662,0 -3,1.338 -3,3 0,0.172 0.0234,0.336 0.0508,0.5 C 6.2888,12.079 7.5096,11 9,11 h 14 c 1.49,0 2.711,1.079 2.949,2.5 C 25.977,13.336 26,13.172 26,13 26,11.338 24.662,10 23,10 Z m 36,0 c -1.662,0 -3,1.338 -3,3 0,0.165 0.027,0.321 0.053,0.479 C 42.299,12.068 43.517,11 45,11 h 14 c 1.498,0 2.724,1.09 2.953,2.521 C 61.983,13.352 62,13.178 62,13 62,11.338 60.662,10 59,10 Z M 42.533,15.682 22,35.748 v 1 L 43,16.225 c -0.178,-0.161 -0.33,-0.346 -0.467,-0.543 z"
         id="path12" />
    </g>
  </g>
  <metadata
     id="metadata12379">
    <rdf:RDF>
      <cc:Work
         rdf:about="">
        <dc:title>Java</dc:title>
      </cc:Work>
    </rdf:RDF>
  </metadata>
</svg>
